<svg width="44" height="44" viewBox="0 0 44 44" fill="none" xmlns="http://www.w3.org/2000/svg">
<path d="M35.92 23.27C35.69 25.27 35.04 27.14 34.07 28.81C32.81 31 30.99 32.82 28.8 34.08C27.17 35.03 25.33 35.68 23.38 35.92V43.18C25.27 43.02 27.09 42.63 28.8 42.02C31.5 41.07 33.94 39.6 36.02 37.73C36.62 37.2 37.18 36.64 37.71 36.04C39.59 33.96 41.06 31.52 42 28.82C42.63 27.07 43.02 25.22 43.16 23.28H35.92V23.27Z" fill="#FAFAFA"/>
<path d="M14.36 1.16C11.66 2.11 9.22 3.58 7.14 5.45C6.54 5.98 5.98 6.54 5.45 7.14C3.57 9.22 2.1 11.67 1.16 14.36C0.570004 16.04 0.170002 17.81 0.0100021 19.65H7.27C7.53 17.74 8.15 15.95 9.09 14.36C10.35 12.17 12.17 10.35 14.36 9.09C15.99 8.13 17.82 7.49 19.77 7.25V0C17.89 0.16 16.06 0.55 14.36 1.16Z" fill="#FAFAFA"/>
<path d="M14.36 34.08C12.17 32.82 10.35 31 9.09 28.81C8.12 27.14 7.47 25.27 7.24 23.28H0C0.14 25.21 0.540002 27.07 1.16 28.81C2.11 31.51 3.58 33.95 5.45 36.03C5.98 36.63 6.54 37.19 7.14 37.72C9.22 39.6 11.66 41.07 14.36 42.01C16.07 42.62 17.89 43.01 19.77 43.17V35.91C17.82 35.67 15.98 35.03 14.36 34.07" fill="#FAFAFA"/>
<path d="M43.17 0V19.73H35.95V7.22H23.39V0H43.17Z" fill="#FF5200"/>
</svg>
